<svg width="165" height="163" viewBox="0 0 165 163" fill="none" xmlns="http://www.w3.org/2000/svg">
<g clip-path="url(#clip0_504_8333)">
<path fill-rule="evenodd" clip-rule="evenodd" d="M93.3291 103.034C93.6623 101.855 94.3501 99.4407 94.3501 98.169C94.3501 95.475 96.4566 92.7058 98.3768 91.04C99.8241 89.7861 98.6562 89.0446 99.7023 87.2677C100.379 86.1142 103.288 81.8511 105.509 81.7364C109.092 81.5537 113.495 77.1259 118.406 77.3265C122.132 77.4805 120.315 81.9084 123.199 84.5666C124.407 85.6807 125.535 85.5875 127.161 85.498C128.465 85.4263 131.564 84.8567 131.736 86.3613C132.023 88.8404 131.374 95.1132 129.146 96.5712C127.129 97.8931 125.342 97.4274 125.001 100.071C124.45 104.381 126.56 98.7099 127.287 99.5769C127.287 100.164 126.617 102.622 127.677 102.622C128.666 102.622 128.157 98.7673 129.261 99.473C129.795 99.8133 129.325 101.665 129.676 102.335C130.131 103.199 130.884 102.805 130.945 101.916C131.002 101.064 131.421 99.9889 132.012 99.6199C132.32 99.4264 132.922 99.4264 133.209 100.723C133.907 103.89 134.771 101.751 134.248 99.2652C133.377 95.1311 135.835 91.9857 137.608 88.4714C137.995 87.6331 139.485 88.2314 139.689 88.02C139.897 87.8086 139.886 87.0205 138.697 86.15C138.378 85.9171 140.585 86.0533 140.585 86.0533C141.394 85.7022 139.804 84.6812 139.22 84.1008C138.844 83.7283 140.728 84.3946 141.033 84.1761C141.248 84.022 140.721 83.37 139.793 82.3598C138.833 81.3137 137.97 80.3106 136.186 79.6837C131.923 77.4662 132.603 73.9304 133.112 72.7374C134.04 70.5593 136.988 71.4692 139.292 70.8029C143.028 69.6924 142.713 65.9523 140.538 63.4912C139.951 62.8284 143.687 58.0782 141.656 59.7977C139.947 61.2414 138.41 62.137 139.481 59.1386C139.442 58.2859 136.641 62.5311 136.565 60.6826C136.512 59.3248 136.401 58.5618 136.089 58.6979C135.849 58.8018 134.634 60.1954 133.578 60.6038C132.288 61.1017 129.791 60.7005 128.899 59.8801C125.567 56.8243 131.22 54.4169 135.537 53.9226C136.558 53.8043 138.937 53.5392 140.065 52.2531C140.699 51.5331 140.939 50.2792 140.055 49.1758C138.726 47.5172 135.014 47.4993 135.827 46.4281C136.035 46.1595 136.709 45.0919 137.816 44.293C137.253 44.2644 137.375 44.139 136.53 44.1103C137.275 43.5658 138.152 42.9675 138.503 42.5233C136.967 42.5233 136.175 42.7096 136.297 42.5126C136.501 42.1794 138.353 41.0796 138.665 39.7935C138.718 39.6359 134.677 42.1185 134.04 42.7597C129.78 47.0443 138.077 48.9824 138.564 50.3365C139.17 52.0239 136.082 52.4251 135.025 52.5218C133.843 52.6329 132.603 52.7583 131.421 53.1022C128.519 53.9476 124.03 56.724 127 60.482C128.895 62.8822 134.441 62.4953 137.547 64.1754C138.919 64.7092 140.198 66.2926 139.847 67.5214C139.216 69.7318 134.702 69.9145 131.518 69.0905C128.838 68.8218 125.184 69.0081 122.762 67.6862C115.751 63.8566 116.862 69.4595 113.982 71.9636C111.807 73.8515 108.956 74.4928 106.953 76.8214C106.817 76.979 106.806 77.0578 106.598 77.0793C106.183 77.1259 105.054 77.2298 104.288 77.785C104.152 77.8853 104.062 78.0071 103.955 78.1361L101.931 80.6044C101.744 80.8301 101.694 80.8086 101.397 80.8337C100.193 80.9376 97.8143 81.088 96.8112 81.0594C95.1777 81.0128 95.0236 82.2057 94.8123 82.7753C93.9991 85.5159 91.8854 92.713 91.5917 94.1209C91.2943 95.5431 90.0656 96.0984 88.9944 96.8256L84.9893 99.1542C84.3982 99.4873 83.413 101.862 84.237 101.931C84.5809 101.959 85.5123 100.082 85.4908 100.333C85.4586 100.698 85.2615 102.815 85.8419 102.837C86.3076 102.855 86.8378 101.458 87.2713 100.806C87.7047 100.15 86.5942 103.593 87.7083 103.797C88.3854 103.922 88.7544 102.067 89.5712 101.365C90.2053 100.82 91.7099 100.512 91.8568 101.092C92.1469 102.228 90.9504 104.069 92.8598 103.79C93.1285 103.75 93.2109 103.467 93.3327 103.045" fill="#231F20"/>
<path fill-rule="evenodd" clip-rule="evenodd" d="M99.7238 80.0061C100.691 79.9775 101.171 79.8951 101.436 79.6121C101.92 79.0998 102.45 78.1648 103.08 77.3265C103.55 76.7032 104.65 76.3664 105.384 76.2124C105.864 76.1121 105.835 76.173 106.169 75.804C106.538 75.392 107.473 74.4104 108.311 73.9841C108.49 73.891 108.784 73.6545 108.569 73.5435C107.809 73.1566 106.047 72.4652 106.727 69.1657C100.265 68.2343 99.5446 72.7947 98.1547 77.0936C97.9684 77.6776 97.9827 78.3618 97.3486 78.9386C95.5108 80.6008 97.9612 80.0635 99.7238 80.0097" fill="#231F20"/>
<path fill-rule="evenodd" clip-rule="evenodd" d="M108.597 98.5451C110.772 96.8327 114.619 90.1587 112.219 88.8941C110.912 88.2063 108.622 89.7037 109.206 86.7733C109.704 84.2692 109.751 81.6827 111.621 80.5184C112.921 79.7088 117.134 78.0107 118.506 78.4979C120.09 79.064 120.917 83.9325 121.104 85.3654C121.326 87.085 118.102 86.9918 118.402 88.0701C118.922 89.9509 122.193 91.8174 121.208 94.5221C120.341 96.9008 117.07 96.3491 116.117 96.7611C115.175 97.1659 113.753 98.1403 112.792 99.5196C111.642 101.175 112.989 102.328 112.298 103.525C111.764 104.449 110.328 105.936 110.349 103.109C110.364 101.572 108.934 101.379 108.766 102.199C108.325 104.32 107.863 104.839 107.419 104.592C106.552 104.109 107.34 102.292 106.975 101.601C106.29 100.304 106.541 103.421 105.606 103.743C104.263 103.453 105.416 101.028 104.976 100.326C104.549 99.6449 104.521 101.511 103.962 102.199C103.224 103.106 102.715 99.5733 104.155 98.7959C105.595 98.0185 107.473 99.43 108.601 98.5451" fill="#231F20"/>
<path fill-rule="evenodd" clip-rule="evenodd" d="M93.2073 73.7118L96.7002 76.4595L97.8322 72.5654L93.2073 73.7118Z" fill="#231F20"/>
<path fill-rule="evenodd" clip-rule="evenodd" d="M90.0476 74.7113C91.194 73.9447 92.0108 74.5429 93.3076 75.2236L96.3742 77.6167C96.6679 78.3296 95.6828 79.2467 95.1275 78.9708L93.0282 77.3229C92.4944 76.9647 92.258 76.6422 91.7923 76.7139C91.1045 76.8214 90.0548 76.85 89.7825 76.087C89.6034 75.589 89.5461 75.0122 90.0476 74.7149" fill="#231F20"/>
<path fill-rule="evenodd" clip-rule="evenodd" d="M97.9361 71.1683C89.3992 73.3536 88.1167 76.9396 88.1167 64.6125C88.1167 62.7926 88.6111 60.0127 88.6111 58.3683C88.6111 57.745 86.519 58.0388 85.7452 56.9891C83.5169 53.9655 87.3071 55.66 87.8767 55.5275C88.7508 55.3233 88.7114 53.4891 88.0666 53.4246C86.2861 53.2491 85.6054 53.3637 85.5732 52.4681C85.5625 52.1385 85.9494 52.0095 87.7406 51.9307C87.8015 51.9307 87.8624 51.9272 87.9233 51.9236C87.9842 51.9236 88.0487 51.9164 88.1167 51.9164C88.1633 51.9164 88.6577 51.311 87.9376 51.1283C87.1602 50.9312 85.6234 51.0136 85.5947 50.4333C85.5589 49.6416 89.4924 50.3652 88.1024 49.6702C87.5113 49.3765 85.6628 49.1902 85.6484 49.1329C85.3654 48.094 89.2237 48.2802 90.3199 48.8248C91.0221 49.1723 92.4335 50.813 92.9745 52.2317C94.1065 55.2266 92.3691 59.5792 93.1464 61.7716C94.6869 62.6887 95.4965 63.1079 96.5891 63.5736C97.5779 63.6811 98.7637 63.6846 99.9351 63.4267C101.522 63.0756 105.158 56.8064 106.04 55.3018C106.899 53.833 106.91 53.3458 106.559 53.4461C106.104 53.5751 105.165 54.7465 104.431 55.9287C103.374 57.6268 102.532 58.5439 101.572 60.4031C100.902 61.7036 99.1541 63.1329 99.4157 60.4569C99.4264 60.3315 96.6429 60.8724 96.1951 59.7261C95.8046 58.7302 97.4955 58.9021 98.0185 58.5618C98.907 57.9814 95.5037 57.6483 98.0651 55.6708C100.573 53.7327 102.855 49.1364 105.749 49.1364C108.486 49.1364 108.415 47.116 110.206 45.9803C111.008 45.4716 110.106 47.4921 110.195 48.4164C110.217 48.6349 113.111 48.4952 113.907 48.5561C115.067 48.6457 116.099 49.3299 115.769 49.5842C115.375 49.8852 112.466 49.7275 113.538 50.3043C114.258 50.6912 115.476 50.9456 116.3 51.3575C116.944 51.6764 117.636 52.3033 118.016 52.9016C118.266 53.5822 116.146 52.9875 115.669 53.3458C115.34 53.593 115.483 53.8079 116.278 54.3489C118.03 55.5454 118.524 56.2798 118.345 56.7921C118.051 56.9497 117.725 56.8745 117.371 56.8924C114.096 57.0894 113.932 61.4922 115.393 63.2189C117.575 65.7947 113.33 72.4293 110.718 72.4831C105.341 72.587 107.924 67.5895 112.044 62.7711C113.624 60.9226 113.803 57.8059 114.046 56.2475C114.283 54.7214 114.057 54.3274 113.717 54.2951C113.208 54.245 112.843 58.44 110.858 62.4093C109.744 64.634 107.49 67.2456 105.534 67.9047C103.449 68.6105 101.135 69.1944 100.906 69.0117C100.562 68.7394 100.809 66.9052 102.034 65.046C102.726 63.9963 103.99 62.9753 104.979 62.1299C105.703 61.5137 110.51 56.9891 109.783 56.4374C108.956 55.8105 103.668 62.1764 102.615 63.1186C101.153 64.4262 98.1726 70.982 97.9397 71.1826" fill="#231F20"/>
<path fill-rule="evenodd" clip-rule="evenodd" d="M117.618 65.0925C116.246 63.7276 115.024 60.765 116.049 59.0454C116.855 57.7844 118.61 58.071 118.503 59.3822C118.377 60.5751 117.983 60.8796 117.654 61.5388C117.22 62.4021 117.776 63.9462 118.069 64.72C118.317 65.3755 118.162 65.6299 117.622 65.0925" fill="#231F20"/>
<path fill-rule="evenodd" clip-rule="evenodd" d="M72.8521 103.338C72.5189 102.16 71.8311 99.7453 71.8311 98.4735C71.8311 95.7795 69.7246 93.0103 67.8044 91.3445C66.3571 90.0906 67.525 89.3491 66.4789 87.5722C65.8019 86.4187 62.8929 82.1556 60.6718 82.0409C57.0894 81.8582 52.6866 77.4304 47.7751 77.631C44.0494 77.785 45.8657 82.2129 42.9819 84.8711C41.7746 85.9852 40.6461 85.892 39.0197 85.8025C37.7157 85.7308 34.6169 85.1612 34.445 86.6658C34.1584 89.1449 34.8068 95.4177 37.0351 96.8757C39.052 98.1977 40.8396 97.7319 41.1799 100.376C41.7316 104.685 39.6216 99.0144 38.8943 99.8814C38.8943 100.469 39.5642 102.926 38.5038 102.926C37.5151 102.926 38.0238 99.0718 36.9204 99.7775C36.3866 100.118 36.8559 101.97 36.5049 102.64C36.0499 103.503 35.2976 103.109 35.2367 102.221C35.1794 101.368 34.7602 100.293 34.1691 99.9208C33.861 99.7273 33.2592 99.7273 32.9726 101.024C32.274 104.191 31.4107 102.052 31.9337 99.5661C32.8042 95.432 30.3467 92.2867 28.5734 88.7723C28.1865 87.934 26.6998 88.5323 26.492 88.3209C26.2842 88.1096 26.295 87.3214 27.4843 86.4509C27.8032 86.218 25.5964 86.3542 25.5964 86.3542C24.7868 86.0031 26.3774 84.9821 26.9613 84.4018C27.3374 84.0292 25.4531 84.6955 25.1486 84.477C24.9336 84.3229 25.4603 83.6709 26.3881 82.6607C27.3482 81.6146 28.2116 80.6116 29.9956 79.9846C34.2587 77.7671 33.578 74.2313 33.0693 73.0383C32.1415 70.8602 29.1931 71.7702 26.8896 71.1038C23.1532 69.9933 23.4684 66.2532 25.643 63.7921C26.2305 63.1294 22.494 58.3791 24.5252 60.0986C26.2305 61.5423 27.7709 62.438 26.6998 59.4395C26.7392 58.5869 29.5406 62.832 29.6159 60.9835C29.6696 59.6258 29.7807 58.8627 30.0923 58.9988C30.3323 59.1027 31.5468 60.4963 32.6036 60.9047C33.8933 61.4062 36.3902 61.0014 37.2822 60.181C40.6139 57.1252 34.9608 54.7178 30.644 54.2235C29.623 54.1053 27.2443 53.8402 26.1158 52.5541C25.4818 51.834 25.2417 50.5802 26.1266 49.4768C27.4557 47.8181 31.1671 47.8002 30.3538 46.7291C30.1461 46.4604 29.4726 45.3928 28.3656 44.5939C28.928 44.5653 28.8062 44.4399 29.6517 44.4112C28.9065 43.8667 28.0289 43.2684 27.6778 42.8242C29.2146 42.8242 30.0063 43.0105 29.8845 42.8135C29.6803 42.4803 27.8282 41.3805 27.5166 40.0944C27.4628 39.9368 31.5038 42.4194 32.1415 43.0607C36.401 47.3452 28.1041 49.2833 27.6169 50.6375C27.0114 52.3248 30.0995 52.726 31.1563 52.8227C32.3385 52.9338 33.578 53.0592 34.7602 53.4031C37.662 54.2486 42.1507 57.0249 39.1809 60.7829C37.2858 63.1831 31.7402 62.7962 28.6343 64.4763C27.2622 65.0101 25.9833 66.5936 26.3344 67.8223C26.9649 70.0327 31.4787 70.2154 34.6635 69.3914C37.3431 69.1227 40.9972 69.309 43.4189 67.9871C50.4297 64.1575 49.3192 69.7604 52.1994 72.2645C54.374 74.1525 57.2256 74.7937 59.2281 77.1223C59.3643 77.2799 59.375 77.3587 59.5828 77.3802C59.9984 77.4268 61.1268 77.5307 61.8935 78.086C62.0296 78.1863 62.1191 78.3081 62.2266 78.437L64.2507 80.9053C64.437 81.131 64.4871 81.1095 64.7845 81.1346C65.9882 81.2385 68.3669 81.3889 69.37 81.3603C71.0035 81.3137 71.1576 82.5067 71.3689 83.0763C72.1822 85.8168 74.2958 93.0139 74.5895 94.4218C74.8869 95.844 76.1157 96.3993 77.1868 97.1265L81.1919 99.4551C81.783 99.7882 82.7682 102.163 81.9442 102.231C81.6003 102.26 80.6689 100.383 80.6904 100.634C80.7226 100.999 80.9197 103.116 80.3393 103.138C79.8736 103.156 79.3434 101.759 78.9099 101.107C78.4765 100.451 79.587 103.894 78.4729 104.098C77.7958 104.223 77.4268 102.368 76.61 101.665C75.9759 101.121 74.4713 100.813 74.3244 101.393C74.0343 102.529 75.2308 104.37 73.3214 104.091C73.0527 104.051 72.9703 103.768 72.8485 103.346" fill="#231F20"/>
<path fill-rule="evenodd" clip-rule="evenodd" d="M66.4574 80.3106C65.4902 80.282 65.0101 80.1996 64.745 79.9166C64.2614 79.4043 63.7312 78.4693 63.1007 77.631C62.6314 77.0076 61.5316 76.6709 60.7972 76.5169C60.3172 76.4165 60.3458 76.4774 60.0127 76.1085C59.6437 75.6965 58.7086 74.7149 57.8704 74.2886C57.6912 74.1954 57.3975 73.959 57.6124 73.848C58.3719 73.4611 60.1345 72.7696 59.4502 69.4702C65.9129 68.5388 66.633 73.0992 68.0229 77.3981C68.2092 77.9821 68.1949 78.6663 68.829 79.2431C70.6668 80.9053 68.2164 80.368 66.4538 80.3142" fill="#231F20"/>
<path fill-rule="evenodd" clip-rule="evenodd" d="M57.5874 98.8497C55.4128 97.1373 51.5653 90.4632 53.9655 89.1986C55.2731 88.5108 57.5623 90.0083 56.9784 87.0778C56.4804 84.5737 56.4338 81.9872 54.5638 80.8229C53.2634 80.0133 49.0505 78.3152 47.6784 78.8024C46.095 79.3685 45.2674 84.237 45.0812 85.6699C44.859 87.3895 48.0832 87.2964 47.7823 88.3747C47.2628 90.2554 43.9921 92.1219 44.9773 94.8266C45.8442 97.2053 49.115 96.6536 50.0679 97.0656C51.0101 97.4704 52.4323 98.4448 53.3924 99.8241C54.5423 101.479 53.1953 102.633 53.8867 103.829C54.4205 104.753 55.8571 106.24 55.8356 103.414C55.8212 101.877 57.2506 101.683 57.419 102.504C57.8596 104.625 58.3218 105.144 58.766 104.897C59.6329 104.413 58.8448 102.597 59.2102 101.905C59.8944 100.609 59.6437 103.725 60.5787 104.048C61.9221 103.758 60.7686 101.332 61.2092 100.63C61.6355 99.9495 61.6642 101.816 62.223 102.504C62.961 103.41 63.4697 99.8742 62.0296 99.1004C60.5894 98.323 58.7123 99.7345 57.5838 98.8497" fill="#231F20"/>
<path fill-rule="evenodd" clip-rule="evenodd" d="M72.9774 74.0163L69.4846 76.7604L68.3525 72.8699L72.9774 74.0163Z" fill="#231F20"/>
<path fill-rule="evenodd" clip-rule="evenodd" d="M76.1335 75.0122C74.9871 74.2456 74.1703 74.8439 72.8735 75.5245L69.807 77.9176C69.5132 78.6305 70.4984 79.5476 71.0536 79.2717L73.1529 77.6238C73.6867 77.2656 73.9232 76.9432 74.3889 77.0148C75.0767 77.1223 76.1263 77.1509 76.3986 76.3879C76.5777 75.8899 76.6351 75.3132 76.1335 75.0158" fill="#231F20"/>
<path fill-rule="evenodd" clip-rule="evenodd" d="M68.2451 71.4728C76.782 73.6581 78.0645 77.2441 78.0645 64.917C78.0645 63.0971 77.5701 60.3172 77.5701 58.6728C77.5701 58.0495 79.6623 58.3433 80.4361 57.2936C82.6643 54.27 78.8741 55.9645 78.3045 55.832C77.4304 55.6278 77.4698 53.7936 78.1147 53.7291C79.8951 53.5536 80.5758 53.6682 80.608 52.7726C80.6188 52.443 80.2319 52.314 78.4407 52.2352C78.3798 52.2352 78.3188 52.2316 78.2579 52.2281C78.1935 52.2281 78.129 52.2209 78.0645 52.2209C78.0179 52.2209 77.5236 51.6155 78.2436 51.4328C79.021 51.2357 80.5579 51.3181 80.5865 50.7378C80.6223 49.9461 76.6888 50.6697 78.0788 49.9747C78.6699 49.681 80.5185 49.4947 80.5328 49.4374C80.8158 48.3985 76.9575 48.5847 75.8613 49.1293C75.1592 49.4768 73.7477 51.1175 73.2067 52.5362C72.0747 55.5311 73.8122 59.8837 73.0348 62.0761C71.4943 62.9932 70.6847 63.4124 69.5921 63.8781C68.6033 63.9856 67.4176 63.9891 66.2461 63.7312C64.6591 63.3801 61.0229 57.1109 60.1417 55.6063C59.2819 54.1375 59.2711 53.6503 59.6258 53.7506C60.0808 53.8796 61.0194 55.051 61.7538 56.2332C62.8106 57.9313 63.6524 58.8484 64.6125 60.7077C65.2824 62.0081 67.0307 63.4375 66.7691 60.7614C66.7584 60.636 69.5419 61.177 69.9897 60.0306C70.3802 59.0347 68.6893 59.2066 68.1663 58.8627C67.2778 58.2824 70.6811 57.9492 68.1197 55.9717C65.612 54.0336 63.33 49.4338 60.4354 49.4338C57.6985 49.4338 57.7701 47.4133 55.9789 46.2777C55.1764 45.769 56.0792 47.7895 55.9896 48.7137C55.9681 48.9358 53.0735 48.7925 52.2783 48.8534C51.1175 48.943 50.0858 49.6272 50.4154 49.8816C50.8095 50.1825 53.7184 50.0249 52.6472 50.6017C51.9308 50.9886 50.7092 51.2429 49.8852 51.6549C49.2404 51.9737 48.549 52.6006 48.1692 53.1989C47.9185 53.8796 50.0392 53.2849 50.5157 53.6431C50.8453 53.8903 50.702 54.1053 49.9067 54.6462C48.1549 55.8427 47.6605 56.5771 47.8396 57.0894C48.1334 57.247 48.4594 57.1718 48.8141 57.1897C52.0884 57.3867 52.2532 61.7895 50.7916 63.5163C48.6099 66.092 52.855 72.7267 55.4666 72.7804C60.8438 72.8843 58.2609 67.8868 54.1411 63.0685C52.5613 61.2199 52.3821 58.1032 52.1385 56.5449C51.9021 55.0188 52.1278 54.6247 52.4681 54.5925C52.9768 54.5423 53.3422 58.7373 55.3269 62.7066C56.441 64.9313 58.6944 67.5429 60.6504 68.2021C62.7353 68.9078 65.0496 69.4917 65.2788 69.309C65.6228 69.0368 65.3756 67.2026 64.1504 65.3433C63.459 64.2936 62.1944 63.2727 61.2056 62.4272C60.482 61.811 55.6744 57.2864 56.4016 56.7347C57.2292 56.1078 62.5168 62.4738 63.57 63.416C65.0317 64.7235 68.0122 71.2794 68.2451 71.48" fill="#231F20"/>
<path fill-rule="evenodd" clip-rule="evenodd" d="M48.5633 65.3934C49.9353 64.0285 51.1569 61.0659 50.1324 59.3463C49.3263 58.0853 47.5709 58.3719 47.6784 59.6831C47.8038 60.876 48.1978 61.1805 48.5274 61.8397C48.9609 62.703 48.4056 64.2471 48.1119 65.0209C47.8647 65.6764 48.0187 65.9308 48.5597 65.3934" fill="#231F20"/>
<path fill-rule="evenodd" clip-rule="evenodd" d="M149.806 50.401L147.545 45.6149L148.81 40.5745L153.79 42.534L156.068 47.1554L151.812 46.6467L149.806 50.401Z" fill="#BCBEC0"/>
<path d="M149.806 50.401L147.545 45.6149L148.81 40.5745L153.79 42.534L156.068 47.1554L151.812 46.6467L149.806 50.401Z" stroke="#BCBEC0" stroke-width="0.209524" stroke-linecap="round" stroke-linejoin="round"/>
<path fill-rule="evenodd" clip-rule="evenodd" d="M153.679 59.8228L152.371 54.6892L154.578 49.9855L159.088 52.8586L160.446 57.8274L156.362 56.5162L153.679 59.8228Z" fill="#BCBEC0"/>
<path d="M153.679 59.8228L152.371 54.6892L154.578 49.9855L159.088 52.8586L160.446 57.8274L156.362 56.5162L153.679 59.8228Z" stroke="#BCBEC0" stroke-width="0.209524" stroke-linecap="round" stroke-linejoin="round"/>
<path fill-rule="evenodd" clip-rule="evenodd" d="M156.559 70.982L155.584 65.7768L158.089 61.2271L162.409 64.3832L163.441 69.4308L159.45 67.8581L156.559 70.982Z" fill="#BCBEC0"/>
<path d="M156.559 70.982L155.584 65.7768L158.089 61.2271L162.409 64.3832L163.441 69.4308L159.45 67.8581L156.559 70.982Z" stroke="#BCBEC0" stroke-width="0.209524" stroke-linecap="round" stroke-linejoin="round"/>
<path fill-rule="evenodd" clip-rule="evenodd" d="M157.677 82.9795L157.53 77.6883L160.711 73.5829L164.483 77.3731L164.716 82.521L161.023 80.3465L157.677 82.9795Z" fill="#BCBEC0"/>
<path d="M157.677 82.9795L157.53 77.6883L160.711 73.5829L164.483 77.3731L164.716 82.521L161.023 80.3465L157.677 82.9795Z" stroke="#BCBEC0" stroke-width="0.209524" stroke-linecap="round" stroke-linejoin="round"/>
<path fill-rule="evenodd" clip-rule="evenodd" d="M156.853 94.8983L156.982 89.6034L160.374 85.67L163.942 89.6536L163.906 94.8051L160.331 92.4407L156.853 94.8983Z" fill="#BCBEC0"/>
<path d="M156.853 94.8983L156.982 89.6034L160.374 85.67L163.942 89.6536L163.906 94.8051L160.331 92.4407L156.853 94.8983Z" stroke="#BCBEC0" stroke-width="0.209524" stroke-linecap="round" stroke-linejoin="round"/>
<path fill-rule="evenodd" clip-rule="evenodd" d="M153.671 105.488L155.545 100.533L160.045 97.9397L162.097 102.88L160.36 107.73L157.766 104.316L153.671 105.488Z" fill="#BCBEC0"/>
<path d="M153.671 105.488L155.545 100.533L160.045 97.9397L162.097 102.88L160.36 107.73L157.766 104.316L153.671 105.488Z" stroke="#BCBEC0" stroke-width="0.209524" stroke-linecap="round" stroke-linejoin="round"/>
<path fill-rule="evenodd" clip-rule="evenodd" d="M149.286 114.849L152.622 110.736L157.712 109.694L158.106 115.028L154.929 119.083L153.542 115.028L149.286 114.849Z" fill="#BCBEC0"/>
<path d="M149.286 114.849L152.622 110.736L157.712 109.694L158.106 115.028L154.929 119.083L153.542 115.028L149.286 114.849Z" stroke="#BCBEC0" stroke-width="0.209524" stroke-linecap="round" stroke-linejoin="round"/>
<path fill-rule="evenodd" clip-rule="evenodd" d="M143.053 124.421L146.388 120.308L151.479 119.266L151.873 124.6L148.695 128.659L147.309 124.6L143.053 124.421Z" fill="#BCBEC0"/>
<path d="M143.053 124.421L146.388 120.308L151.479 119.266L151.873 124.6L148.695 128.659L147.309 124.6L143.053 124.421Z" stroke="#BCBEC0" stroke-width="0.209524" stroke-linecap="round" stroke-linejoin="round"/>
<path fill-rule="evenodd" clip-rule="evenodd" d="M135.107 131.722L139.17 128.322L144.364 128.272L143.727 133.585L139.832 136.956L139.249 132.711L135.107 131.722Z" fill="#BCBEC0"/>
<path d="M135.107 131.722L139.17 128.322L144.364 128.272L143.727 133.585L139.832 136.956L139.249 132.711L135.107 131.722Z" stroke="#BCBEC0" stroke-width="0.209524" stroke-linecap="round" stroke-linejoin="round"/>
<path fill-rule="evenodd" clip-rule="evenodd" d="M126.295 140.073L130.364 136.684L135.559 136.648L134.91 141.957L131.009 145.321L130.432 141.072L126.295 140.073Z" fill="#BCBEC0"/>
<path d="M126.295 140.073L130.364 136.684L135.559 136.648L134.91 141.957L131.009 145.321L130.432 141.072L126.295 140.073Z" stroke="#BCBEC0" stroke-width="0.209524" stroke-linecap="round" stroke-linejoin="round"/>
<path fill-rule="evenodd" clip-rule="evenodd" d="M115.064 147.116L119.524 144.257L124.682 144.866L123.382 150.053L119.09 152.908L119.047 148.62L115.064 147.116Z" fill="#BCBEC0"/>
<path d="M115.064 147.116L119.524 144.257L124.682 144.866L123.382 150.053L119.09 152.908L119.047 148.62L115.064 147.116Z" stroke="#BCBEC0" stroke-width="0.209524" stroke-linecap="round" stroke-linejoin="round"/>
<path fill-rule="evenodd" clip-rule="evenodd" d="M102.776 152.622L107.587 150.408L112.613 151.723L110.607 156.681L105.968 158.916L106.516 154.664L102.776 152.622Z" fill="#BCBEC0"/>
<path d="M102.776 152.622L107.587 150.408L112.613 151.723L110.607 156.681L105.968 158.916L106.516 154.664L102.776 152.622Z" stroke="#BCBEC0" stroke-width="0.209524" stroke-linecap="round" stroke-linejoin="round"/>
<path fill-rule="evenodd" clip-rule="evenodd" d="M149.394 49.9891L147.133 45.1994L148.398 40.1625L153.378 42.1221L155.656 46.7434L151.4 46.2347L149.394 49.9891Z" fill="#231F20"/>
<path d="M149.394 49.9891L147.133 45.1994L148.398 40.1625L153.378 42.1221L155.656 46.7434L151.4 46.2347L149.394 49.9891Z" stroke="#231F20" stroke-width="0.209524" stroke-linecap="round" stroke-linejoin="round"/>
<path fill-rule="evenodd" clip-rule="evenodd" d="M153.267 59.4072L151.959 54.2772L154.166 49.5735L158.676 52.443L160.034 57.4154L155.95 56.1042L153.267 59.4072Z" fill="#231F20"/>
<path d="M153.267 59.4072L151.959 54.2772L154.166 49.5735L158.676 52.443L160.034 57.4154L155.95 56.1042L153.267 59.4072Z" stroke="#231F20" stroke-width="0.209524" stroke-linecap="round" stroke-linejoin="round"/>
<path fill-rule="evenodd" clip-rule="evenodd" d="M156.147 70.5701L155.172 65.3648L157.677 60.8151L161.993 63.9712L163.029 69.0189L159.038 67.4462L156.147 70.5701Z" fill="#231F20"/>
<path d="M156.147 70.5701L155.172 65.3648L157.677 60.8151L161.993 63.9712L163.029 69.0189L159.038 67.4462L156.147 70.5701Z" stroke="#231F20" stroke-width="0.209524" stroke-linecap="round" stroke-linejoin="round"/>
<path fill-rule="evenodd" clip-rule="evenodd" d="M157.265 82.5675L157.118 77.2727L160.299 73.1709L164.071 76.9611L164.304 82.109L160.611 79.9345L157.265 82.5675Z" fill="#231F20"/>
<path d="M157.265 82.5675L157.118 77.2727L160.299 73.1709L164.071 76.9611L164.304 82.109L160.611 79.9345L157.265 82.5675Z" stroke="#231F20" stroke-width="0.209524" stroke-linecap="round" stroke-linejoin="round"/>
<path fill-rule="evenodd" clip-rule="evenodd" d="M156.441 94.4863L156.57 89.1915L159.958 85.258L163.53 89.2416L163.494 94.3931L159.919 92.0287L156.441 94.4863Z" fill="#231F20"/>
<path d="M156.441 94.4863L156.57 89.1915L159.958 85.258L163.53 89.2416L163.494 94.3931L159.919 92.0287L156.441 94.4863Z" stroke="#231F20" stroke-width="0.209524" stroke-linecap="round" stroke-linejoin="round"/>
<path fill-rule="evenodd" clip-rule="evenodd" d="M153.259 105.072L155.133 100.118L159.633 97.5277L161.685 102.468L159.948 107.318L157.354 103.904L153.259 105.072Z" fill="#231F20"/>
<path d="M153.259 105.072L155.133 100.118L159.633 97.5277L161.685 102.468L159.948 107.318L157.354 103.904L153.259 105.072Z" stroke="#231F20" stroke-width="0.209524" stroke-linecap="round" stroke-linejoin="round"/>
<path fill-rule="evenodd" clip-rule="evenodd" d="M148.875 114.437L152.21 110.321L157.3 109.278L157.694 114.612L154.517 118.671L153.13 114.612L148.875 114.437Z" fill="#231F20"/>
<path d="M148.875 114.437L152.21 110.321L157.3 109.278L157.694 114.612L154.517 118.671L153.13 114.612L148.875 114.437Z" stroke="#231F20" stroke-width="0.209524" stroke-linecap="round" stroke-linejoin="round"/>
<path fill-rule="evenodd" clip-rule="evenodd" d="M142.641 124.009L145.976 119.896L151.067 118.854L151.457 124.188L148.283 128.243L146.897 124.188L142.641 124.009Z" fill="#231F20"/>
<path d="M142.641 124.009L145.976 119.896L151.067 118.854L151.457 124.188L148.283 128.243L146.897 124.188L142.641 124.009Z" stroke="#231F20" stroke-width="0.209524" stroke-linecap="round" stroke-linejoin="round"/>
<path fill-rule="evenodd" clip-rule="evenodd" d="M134.695 131.306L138.758 127.91L143.952 127.86L143.315 133.173L139.421 136.544L138.837 132.299L134.695 131.306Z" fill="#231F20"/>
<path d="M134.695 131.306L138.758 127.91L143.952 127.86L143.315 133.173L139.421 136.544L138.837 132.299L134.695 131.306Z" stroke="#231F20" stroke-width="0.209524" stroke-linecap="round" stroke-linejoin="round"/>
<path fill-rule="evenodd" clip-rule="evenodd" d="M125.883 139.661L129.952 136.272L135.147 136.236L134.498 141.545L130.597 144.909L130.02 140.66L125.883 139.661Z" fill="#231F20"/>
<path d="M125.883 139.661L129.952 136.272L135.147 136.236L134.498 141.545L130.597 144.909L130.02 140.66L125.883 139.661Z" stroke="#231F20" stroke-width="0.209524" stroke-linecap="round" stroke-linejoin="round"/>
<path fill-rule="evenodd" clip-rule="evenodd" d="M114.652 146.704L119.112 143.845L124.27 144.45L122.97 149.641L118.678 152.493L118.635 148.208L114.652 146.704Z" fill="#231F20"/>
<path d="M114.652 146.704L119.112 143.845L124.27 144.45L122.97 149.641L118.678 152.493L118.635 148.208L114.652 146.704Z" stroke="#231F20" stroke-width="0.209524" stroke-linecap="round" stroke-linejoin="round"/>
<path fill-rule="evenodd" clip-rule="evenodd" d="M102.364 152.21L107.175 149.996L112.201 151.307L110.195 156.269L105.552 158.504L106.104 154.252L102.364 152.21Z" fill="#231F20"/>
<path d="M102.364 152.21L107.175 149.996L112.201 151.307L110.195 156.269L105.552 158.504L106.104 154.252L102.364 152.21Z" stroke="#231F20" stroke-width="0.209524" stroke-linecap="round" stroke-linejoin="round"/>
<path fill-rule="evenodd" clip-rule="evenodd" d="M14.9494 50.1431L17.2099 45.3534L15.9418 40.3165L10.9658 42.2725L8.68738 46.8938L12.9433 46.3851L14.9494 50.1431Z" fill="#BCBEC0"/>
<path d="M14.9494 50.1431L17.2099 45.3534L15.9418 40.3165L10.9658 42.2725L8.68738 46.8938L12.9433 46.3851L14.9494 50.1431Z" stroke="#BCBEC0" stroke-width="0.209524" stroke-linecap="round" stroke-linejoin="round"/>
<path fill-rule="evenodd" clip-rule="evenodd" d="M11.0768 59.5613L12.3808 54.4276L10.1777 49.7239L5.66382 52.597L4.30966 57.5658L8.39004 56.2583L11.0768 59.5613Z" fill="#BCBEC0"/>
<path d="M11.0768 59.5613L12.3808 54.4276L10.1777 49.7239L5.66382 52.597L4.30966 57.5658L8.39004 56.2583L11.0768 59.5613Z" stroke="#BCBEC0" stroke-width="0.209524" stroke-linecap="round" stroke-linejoin="round"/>
<path fill-rule="evenodd" clip-rule="evenodd" d="M8.19658 70.7241L9.16742 65.5188L6.66689 60.9656L2.34649 64.1217L1.31476 69.1693L5.30557 67.6002L8.19658 70.7241Z" fill="#BCBEC0"/>
<path d="M8.19658 70.7241L9.16742 65.5188L6.66689 60.9656L2.34649 64.1217L1.31476 69.1693L5.30557 67.6002L8.19658 70.7241Z" stroke="#BCBEC0" stroke-width="0.209524" stroke-linecap="round" stroke-linejoin="round"/>
<path fill-rule="evenodd" clip-rule="evenodd" d="M7.07885 82.7216L7.22573 77.4268L4.04096 73.3213L0.268673 77.1151L0.0393982 82.2595L3.73287 80.0849L7.07885 82.7216Z" fill="#BCBEC0"/>
<path d="M7.07885 82.7216L7.22573 77.4268L4.04096 73.3213L0.268673 77.1151L0.0393982 82.2595L3.73287 80.0849L7.07885 82.7216Z" stroke="#BCBEC0" stroke-width="0.209524" stroke-linecap="round" stroke-linejoin="round"/>
<path fill-rule="evenodd" clip-rule="evenodd" d="M7.90281 94.6367L7.77384 89.3455L4.38129 85.4084L0.813202 89.3921L0.849026 94.5436L4.42428 92.1792L7.90281 94.6367Z" fill="#BCBEC0"/>
<path d="M7.90281 94.6367L7.77384 89.3455L4.38129 85.4084L0.813202 89.3921L0.849026 94.5436L4.42428 92.1792L7.90281 94.6367Z" stroke="#BCBEC0" stroke-width="0.209524" stroke-linecap="round" stroke-linejoin="round"/>
<path fill-rule="evenodd" clip-rule="evenodd" d="M11.0804 105.226L9.2104 100.272L4.7073 97.6818L2.65457 102.622L4.39204 107.469L6.9893 104.055L11.0804 105.226Z" fill="#BCBEC0"/>
<path d="M11.0804 105.226L9.2104 100.272L4.7073 97.6818L2.65457 102.622L4.39204 107.469L6.9893 104.055L11.0804 105.226Z" stroke="#BCBEC0" stroke-width="0.209524" stroke-linecap="round" stroke-linejoin="round"/>
<path fill-rule="evenodd" clip-rule="evenodd" d="M15.4653 114.587L12.1301 110.475L7.04302 109.432L6.64896 114.766L9.82656 118.822L11.213 114.766L15.4653 114.587Z" fill="#BCBEC0"/>
<path d="M15.4653 114.587L12.1301 110.475L7.04302 109.432L6.64896 114.766L9.82656 118.822L11.213 114.766L15.4653 114.587Z" stroke="#BCBEC0" stroke-width="0.209524" stroke-linecap="round" stroke-linejoin="round"/>
<path fill-rule="evenodd" clip-rule="evenodd" d="M21.7023 124.163L18.3635 120.05L13.2765 119.008L12.8824 124.342L16.06 128.397L17.4464 124.342L21.7023 124.163Z" fill="#BCBEC0"/>
<path d="M21.7023 124.163L18.3635 120.05L13.2765 119.008L12.8824 124.342L16.06 128.397L17.4464 124.342L21.7023 124.163Z" stroke="#BCBEC0" stroke-width="0.209524" stroke-linecap="round" stroke-linejoin="round"/>
<path fill-rule="evenodd" clip-rule="evenodd" d="M29.6445 131.46L25.5856 128.061L20.3911 128.014L21.0252 133.323L24.9193 136.698L25.5032 132.449L29.6445 131.46Z" fill="#BCBEC0"/>
<path d="M29.6445 131.46L25.5856 128.061L20.3911 128.014L21.0252 133.323L24.9193 136.698L25.5032 132.449L29.6445 131.46Z" stroke="#BCBEC0" stroke-width="0.209524" stroke-linecap="round" stroke-linejoin="round"/>
<path fill-rule="evenodd" clip-rule="evenodd" d="M38.4608 139.811L34.3912 136.422L29.1967 136.386L29.8451 141.695L33.7464 145.059L34.3232 140.811L38.4608 139.811Z" fill="#BCBEC0"/>
<path d="M38.4608 139.811L34.3912 136.422L29.1967 136.386L29.8451 141.695L33.7464 145.059L34.3232 140.811L38.4608 139.811Z" stroke="#BCBEC0" stroke-width="0.209524" stroke-linecap="round" stroke-linejoin="round"/>
<path fill-rule="evenodd" clip-rule="evenodd" d="M49.6881 146.854L45.2316 143.995L40.0729 144.604L41.3734 149.792L45.6615 152.647L45.7081 148.359L49.6881 146.854Z" fill="#BCBEC0"/>
<path d="M49.6881 146.854L45.2316 143.995L40.0729 144.604L41.3734 149.792L45.6615 152.647L45.7081 148.359L49.6881 146.854Z" stroke="#BCBEC0" stroke-width="0.209524" stroke-linecap="round" stroke-linejoin="round"/>
<path fill-rule="evenodd" clip-rule="evenodd" d="M61.9758 152.364L57.1682 150.146L52.1421 151.461L54.1482 156.419L58.7875 158.655L58.2394 154.402L61.9758 152.364Z" fill="#BCBEC0"/>
<path d="M61.9758 152.364L57.1682 150.146L52.1421 151.461L54.1482 156.419L58.7875 158.655L58.2394 154.402L61.9758 152.364Z" stroke="#BCBEC0" stroke-width="0.209524" stroke-linecap="round" stroke-linejoin="round"/>
<path fill-rule="evenodd" clip-rule="evenodd" d="M15.4438 49.7311L17.7043 44.9414L16.4361 39.9046L11.4602 41.8606L9.18173 46.4819L13.4376 45.9732L15.4438 49.7311Z" fill="#231F20"/>
<path d="M15.4438 49.7311L17.7043 44.9414L16.4361 39.9046L11.4602 41.8606L9.18173 46.4819L13.4376 45.9732L15.4438 49.7311Z" stroke="#231F20" stroke-width="0.209524" stroke-linecap="round" stroke-linejoin="round"/>
<path fill-rule="evenodd" clip-rule="evenodd" d="M11.5712 59.1493L12.8752 54.0157L10.672 49.312L6.15817 52.1851L4.80402 57.1539L8.88439 55.8427L11.5712 59.1493Z" fill="#231F20"/>
<path d="M11.5712 59.1493L12.8752 54.0157L10.672 49.312L6.15817 52.1851L4.80402 57.1539L8.88439 55.8427L11.5712 59.1493Z" stroke="#231F20" stroke-width="0.209524" stroke-linecap="round" stroke-linejoin="round"/>
<path fill-rule="evenodd" clip-rule="evenodd" d="M8.69097 70.3121L9.6618 65.1033L7.16127 60.5536L2.84088 63.7097L1.80914 68.7573L5.79996 67.1847L8.69097 70.3121Z" fill="#231F20"/>
<path d="M8.69097 70.3121L9.6618 65.1033L7.16127 60.5536L2.84088 63.7097L1.80914 68.7573L5.79996 67.1847L8.69097 70.3121Z" stroke="#231F20" stroke-width="0.209524" stroke-linecap="round" stroke-linejoin="round"/>
<path fill-rule="evenodd" clip-rule="evenodd" d="M7.57323 82.3096L7.72011 77.0148L4.53893 72.9093L0.763058 76.6995L0.533783 81.8475L4.22726 79.6729L7.57323 82.3096Z" fill="#231F20"/>
<path d="M7.57323 82.3096L7.72011 77.0148L4.53893 72.9093L0.763058 76.6995L0.533783 81.8475L4.22726 79.6729L7.57323 82.3096Z" stroke="#231F20" stroke-width="0.209524" stroke-linecap="round" stroke-linejoin="round"/>
<path fill-rule="evenodd" clip-rule="evenodd" d="M8.39719 94.2247L8.26822 88.9299L4.87567 84.9964L1.30759 88.9801L1.34341 94.1316L4.91866 91.7672L8.39719 94.2247Z" fill="#231F20"/>
<path d="M8.39719 94.2247L8.26822 88.9299L4.87567 84.9964L1.30759 88.9801L1.34341 94.1316L4.91866 91.7672L8.39719 94.2247Z" stroke="#231F20" stroke-width="0.209524" stroke-linecap="round" stroke-linejoin="round"/>
<path fill-rule="evenodd" clip-rule="evenodd" d="M11.5748 104.814L9.70478 99.8599L5.20168 97.2662L3.14896 102.206L4.89001 107.057L7.48368 103.643L11.5748 104.814Z" fill="#231F20"/>
<path d="M11.5748 104.814L9.70478 99.8599L5.20168 97.2662L3.14896 102.206L4.89001 107.057L7.48368 103.643L11.5748 104.814Z" stroke="#231F20" stroke-width="0.209524" stroke-linecap="round" stroke-linejoin="round"/>
<path fill-rule="evenodd" clip-rule="evenodd" d="M15.9597 114.175L12.6244 110.063L7.53741 109.02L7.14334 114.354L10.3209 118.41L11.7073 114.354L15.9597 114.175Z" fill="#231F20"/>
<path d="M15.9597 114.175L12.6244 110.063L7.53741 109.02L7.14334 114.354L10.3209 118.41L11.7073 114.354L15.9597 114.175Z" stroke="#231F20" stroke-width="0.209524" stroke-linecap="round" stroke-linejoin="round"/>
<path fill-rule="evenodd" clip-rule="evenodd" d="M22.1967 123.751L18.8614 119.635L13.7708 118.592L13.3767 123.927L16.5543 127.985L17.9407 123.93L22.1967 123.751Z" fill="#231F20"/>
<path d="M22.1967 123.751L18.8614 119.635L13.7708 118.592L13.3767 123.927L16.5543 127.985L17.9407 123.93L22.1967 123.751Z" stroke="#231F20" stroke-width="0.209524" stroke-linecap="round" stroke-linejoin="round"/>
<path fill-rule="evenodd" clip-rule="evenodd" d="M30.1425 131.048L26.08 127.649L20.8855 127.602L21.5196 132.911L25.4137 136.286L26.0012 132.037L30.1425 131.048Z" fill="#231F20"/>
<path d="M30.1425 131.048L26.08 127.649L20.8855 127.602L21.5196 132.911L25.4137 136.286L26.0012 132.037L30.1425 131.048Z" stroke="#231F20" stroke-width="0.209524" stroke-linecap="round" stroke-linejoin="round"/>
<path fill-rule="evenodd" clip-rule="evenodd" d="M38.9552 139.399L34.8856 136.01L29.6911 135.974L30.3395 141.283L34.2407 144.647L34.8175 140.399L38.9552 139.399Z" fill="#231F20"/>
<path d="M38.9552 139.399L34.8856 136.01L29.6911 135.974L30.3395 141.283L34.2407 144.647L34.8175 140.399L38.9552 139.399Z" stroke="#231F20" stroke-width="0.209524" stroke-linecap="round" stroke-linejoin="round"/>
<path fill-rule="evenodd" clip-rule="evenodd" d="M50.1825 146.442L45.726 143.583L40.5673 144.192L41.8677 149.38L46.1559 152.235L46.2024 147.947L50.1825 146.442Z" fill="#231F20"/>
<path d="M50.1825 146.442L45.726 143.583L40.5673 144.192L41.8677 149.38L46.1559 152.235L46.2024 147.947L50.1825 146.442Z" stroke="#231F20" stroke-width="0.209524" stroke-linecap="round" stroke-linejoin="round"/>
<path fill-rule="evenodd" clip-rule="evenodd" d="M62.4702 151.948L57.6626 149.734L52.6364 151.049L54.6426 156.007L59.2818 158.243L58.7337 153.99L62.4702 151.948Z" fill="#231F20"/>
<path d="M62.4702 151.948L57.6626 149.734L52.6364 151.049L54.6426 156.007L59.2818 158.243L58.7337 153.99L62.4702 151.948Z" stroke="#231F20" stroke-width="0.209524" stroke-linecap="round" stroke-linejoin="round"/>
<path fill-rule="evenodd" clip-rule="evenodd" d="M71.4513 154.746C70.6668 148.427 80.0169 154.306 76.3986 156.419C74.8403 157.598 73.6402 157.347 73.4682 159.905C74.7829 160.962 78.5875 159.299 80.0993 158.952C79.8843 153.557 81.1059 151.583 81.4821 146.302C81.6003 144.619 78.8132 142.738 82.5102 141.172C84.8782 140.169 89.1449 140.807 87.805 146.159C87.2139 148.649 82.2559 156.992 84.1438 157.97C86.2431 158.307 89.4064 156.021 91.0973 155.287C90.9002 154.868 90.9325 153.363 89.9294 151.952C90.868 149.577 95.3711 149.018 96.5569 150.336C99.9602 152.468 98.3051 155.62 97.4274 158.977C96.496 160.904 94.7621 157.025 93.3972 157.429C85.0322 159.916 73.3034 164.809 69.7102 162.298C67.3208 160.628 69.3807 159.403 70.4912 157.494C70.9963 156.627 71.0357 155.312 71.4477 154.739" fill="#231F20"/>
<path fill-rule="evenodd" clip-rule="evenodd" d="M79.1607 126.42C79.6444 127.194 81.801 129.275 82.6321 128.784C82.5915 127.979 82.5294 127.49 82.4458 127.316C82.3562 127.301 82.2703 127.305 82.2022 127.308C82.0398 127.072 81.9502 126.831 81.9335 126.585C82.9653 125.496 84.9499 126.119 86.1751 126.603C86.5047 127.219 86.8343 127.839 87.1638 128.476C87.4289 128.462 88.0989 128.093 88.4141 127.799C89.1521 127.108 90.9397 127.957 90.2268 128.87C89.3778 129.408 88.887 129.726 88.0165 129.959C87.9699 130.067 87.7299 130.364 87.8481 130.486C88.2028 130.859 89.2882 131.127 89.4566 131.174C92.7202 132.087 90.8322 136.723 88.6971 133.699C88.063 132.8 87.6546 132.299 86.6981 132.41C86.2145 134.355 84.6418 135.799 83.2626 135.569C82.2237 135.569 81.2529 134.38 81.5251 133.782C81.7974 133.184 83.105 133.757 83.1086 131.718C83.0691 131.145 80.977 131.55 80.934 131.224C80.7048 131.64 79.7769 132.166 79.2037 132.625C78.7273 133.004 78.4335 133.209 78.1756 133.252C77.1546 133.424 75.9616 133.001 75.7073 131.991C75.675 131.84 75.6822 131.561 76.0225 131.353C76.9074 130.812 78.4908 131.5 78.7416 129.823C78.8025 128.283 75.8649 129.504 76.8572 127.362C77.2226 126.574 78.5123 125.614 79.1715 126.416M70.8603 129.16C70.5558 128.881 70.6489 128.562 70.7994 128.24C72.8127 126.979 78.9744 124.46 80.6761 121.358C80.6439 121.197 80.7513 120.713 80.7227 120.57C77.5057 119.391 76.1121 121.551 75.521 121.01C75.4135 120.91 75.2846 120.878 75.2308 120.774C73.3536 117.847 79.9632 117.604 81.2744 117.926C81.2636 117.761 81.3962 117.009 81.3854 116.844C79.7196 116.228 78.7022 117.317 78.4048 116.726C77.391 114.73 80.5256 114.662 81.6505 114.788C81.6469 114.723 81.7759 114.329 81.7687 113.957C80.4182 113.477 77.0435 114.279 75.7395 114.874C75.9975 111.771 78.5625 111.882 81.8475 111.822C82.4243 110.07 81.7329 109.36 81.7687 108.597C81.826 107.422 86.8092 107.186 86.8092 108.114C86.8128 109.425 85.6485 109.317 86.0139 111.435C88.0774 111.273 89.9402 111.857 90.5206 110.844C91.6025 111.17 91.1439 112.803 91.1762 113.581C89.8184 113.896 86.9346 113.57 86.1823 113.878C86.1214 113.903 86.2396 114.645 86.3578 114.684C86.648 114.773 88.1096 114.888 88.8333 114.691C88.9264 114.666 89.5462 114.691 89.5354 115.035C89.5139 115.848 89.8722 116.257 88.8082 116.826C87.1567 117.231 86.6122 116.905 86.064 116.977C85.9566 117.353 85.9064 117.446 86.064 117.808C90.4239 119.087 92.6378 115.906 93.8701 117.03C94.2929 117.819 94.5042 118.714 94.1854 119.237C93.4008 120.513 87.9269 120.122 86.1751 120.505C86.4868 124.639 92.4085 126.266 95.8082 126.685C96.8543 126.814 96.8973 127.702 95.7509 127.849C90.5671 128.512 86.2181 124.819 83.3916 123.135C80.5543 124.399 75.4601 128.028 70.8674 129.171L70.8603 129.16Z" fill="#231F20"/>
<path fill-rule="evenodd" clip-rule="evenodd" d="M83.3772 36.8989C82.2702 37.3252 80.8946 40.7213 82.7073 40.7715L89.9044 40.7285C92.6915 40.8575 92.67 37.3969 92.8849 35.577L86.9668 33.6962L83.3772 36.8989Z" fill="#231F20"/>
<path d="M83.3772 36.8989C82.2702 37.3252 80.8946 40.7213 82.7073 40.7715L89.9044 40.7285C92.6915 40.8575 92.67 37.3969 92.8849 35.577L86.9668 33.6962L83.3772 36.8989Z" stroke="#231F20" stroke-width="0.209524" stroke-miterlimit="22.93"/>
<path fill-rule="evenodd" clip-rule="evenodd" d="M70.133 35.1865L70.0291 23.8947C70.5307 22.4976 73.916 22.6373 74.4964 23.9986C75.2559 21.0252 79.0926 20.6168 80.3142 23.1675C81.1489 19.6854 85.2616 19.2125 86.8092 21.0861C88.8583 18.6716 92.1971 19.6352 92.7309 22.4904L92.8814 35.577C92.7775 36.7986 87.4003 37.121 87.454 35.8743L87.171 31.3748L86.7554 36.0176C86.261 37.2321 81.8009 37.1712 81.7472 36.1753L81.4033 29.9562L80.9053 30.0744L80.8803 35.4731C80.8803 36.0606 80.8946 36.598 80.3572 36.9813C79.2968 37.7372 76.0762 37.5438 75.478 36.7162C75.3848 36.5872 75.2129 36.2827 75.1806 35.9138C75.0158 33.9613 74.9155 32.0018 74.7006 30.0601L74.3352 35.1471C74.285 35.4839 74.2528 35.9317 73.934 36.1251C72.9703 36.7126 70.3265 36.2756 70.1294 35.1865H70.133Z" fill="#231F20"/>
<path d="M70.133 35.1865L70.0291 23.8947C70.5307 22.4976 73.916 22.6373 74.4964 23.9986C75.2559 21.0252 79.0926 20.6168 80.3142 23.1675C81.1489 19.6854 85.2616 19.2125 86.8092 21.0861C88.8583 18.6716 92.1971 19.6352 92.7309 22.4904L92.8814 35.577C92.7775 36.7986 87.4003 37.121 87.454 35.8743L87.171 31.3748L86.7554 36.0176C86.261 37.2321 81.8009 37.1712 81.7472 36.1753L81.4033 29.9562L80.9053 30.0744L80.8803 35.4731C80.8803 36.0606 80.8946 36.598 80.3572 36.9813C79.2968 37.7372 76.0762 37.5438 75.478 36.7162C75.3848 36.5872 75.2129 36.2827 75.1806 35.9138C75.0158 33.9613 74.9155 32.0018 74.7006 30.0601L74.3352 35.1471C74.285 35.4839 74.2528 35.9317 73.934 36.1251C72.9703 36.7126 70.3265 36.2756 70.1294 35.1865H70.133Z" stroke="white" stroke-width="0.209524" stroke-miterlimit="22.93"/>
<path d="M124.987 111.546H104.614V115.171H124.987V111.546Z" fill="#B02837"/>
<path d="M113.917 117.113H104.61V120.738H113.917V117.113Z" fill="#B02837"/>
<path d="M113.924 122.748H104.617V126.373H113.924V122.748Z" fill="#B02837"/>
<path d="M124.987 117.098H115.683V120.724H124.987V117.098Z" fill="#B02837"/>
<path d="M124.994 122.734H115.691V126.359H124.994V122.734Z" fill="#B02837"/>
<path d="M58.9308 123.124H38.5576V126.75H58.9308V123.124Z" fill="#B02837"/>
<path d="M58.938 117.553H49.6308V121.179H58.938V117.553Z" fill="#B02837"/>
<path d="M58.9307 111.918H49.6236V115.544H58.9307V111.918Z" fill="#B02837"/>
<path d="M47.8647 117.568H38.5612V121.193H47.8647V117.568Z" fill="#B02837"/>
<path d="M47.8575 111.933H38.554V115.558H47.8575V111.933Z" fill="#B02837"/>
<path d="M143.089 27.3231L140.957 33.0944L143.655 30.7407C143.899 30.5293 144.017 30.3681 144.013 30.2642C144.01 30.1568 143.916 30.0027 143.737 29.7985L143.44 29.4582L144.296 28.7131L146.61 31.3676L145.754 32.1128L145.568 31.8978C145.382 31.6865 145.238 31.5754 145.135 31.5611C145.027 31.5468 144.855 31.6471 144.622 31.8513L139.951 35.9245L138.145 33.8538L140.424 27.7315L137.472 30.3072C137.239 30.5114 137.117 30.6691 137.117 30.7765C137.117 30.884 137.203 31.0452 137.389 31.2566L137.622 31.5253L136.766 32.2704L134.441 29.6051L135.297 28.8599L135.555 29.1573C135.741 29.3686 135.888 29.4833 136.003 29.494C136.114 29.5048 136.286 29.4116 136.515 29.211L139.811 26.3343C140.04 26.1337 140.159 25.9797 140.162 25.8686C140.166 25.7576 140.073 25.5928 139.886 25.3778L139.628 25.0841L140.485 24.3389L143.093 27.3302L143.089 27.3231ZM131.031 26.6066L131.772 25.7468L132.044 25.9833C132.274 26.1839 132.424 26.2913 132.499 26.3093C132.575 26.3272 132.639 26.3021 132.7 26.2304C132.743 26.1839 132.779 26.1337 132.807 26.0871C132.84 26.037 132.865 25.9868 132.89 25.9367L133.234 25.0984L131.6 23.6869L130.912 24.1025C130.801 24.1634 130.719 24.2135 130.665 24.253C130.608 24.2924 130.565 24.3353 130.529 24.3748C130.482 24.4285 130.482 24.5001 130.529 24.5933C130.579 24.6864 130.669 24.7903 130.805 24.9085L131.106 25.1665L130.364 26.0262L127.652 23.6833L128.394 22.8236L128.62 23.017C128.774 23.1496 128.946 23.214 129.132 23.2033C129.322 23.1961 129.547 23.1173 129.816 22.9597L135.372 19.757L137.565 21.6521L135.039 27.4413C134.878 27.8246 134.806 28.0861 134.831 28.2151C134.857 28.3477 134.957 28.4909 135.132 28.6414L135.451 28.9173L134.71 29.777L131.031 26.5958V26.6066ZM133.699 23.9843L134.735 21.67L132.632 23.06L133.699 23.9843ZM128.132 14.1971L127.48 15.125L127.373 15.0461C127.176 14.91 127.025 14.8491 126.921 14.867C126.818 14.8849 126.678 15.0211 126.502 15.2682L125.671 16.4504L127.488 17.7294L128.319 16.5472C128.491 16.3 128.569 16.1244 128.551 16.017C128.534 15.9131 128.423 15.7877 128.225 15.6516L128.122 15.5763L128.774 14.6485L132.41 17.2063L131.758 18.1342L131.425 17.9013C131.195 17.7401 131.031 17.6685 130.923 17.6792C130.816 17.6935 130.676 17.8261 130.497 18.0804L127.978 21.6593C127.799 21.9136 127.72 22.0928 127.745 22.2002C127.767 22.3077 127.892 22.4402 128.122 22.6015L128.455 22.8343L127.803 23.7622L124.167 21.2043L124.819 20.2765L124.923 20.3517C125.116 20.4878 125.266 20.5452 125.374 20.5272C125.481 20.5093 125.625 20.3768 125.8 20.126L126.836 18.6572L125.016 17.3783L123.984 18.8471C123.808 19.0979 123.73 19.2734 123.747 19.3809C123.765 19.4883 123.873 19.6101 124.066 19.7463L124.174 19.8215L123.522 20.7493L119.889 18.1915L120.541 17.2637L120.871 17.4965C121.089 17.6506 121.254 17.7258 121.362 17.7258C121.469 17.7222 121.62 17.5861 121.809 17.3138L124.328 13.735C124.511 13.477 124.586 13.2979 124.561 13.1976C124.539 13.0973 124.41 12.9612 124.177 12.8L123.848 12.5671L124.5 11.6393L128.136 14.1935L128.132 14.1971ZM114.107 11.9903L115.135 12.5205C115.021 13.1546 115.078 13.7314 115.311 14.2437C115.544 14.756 115.927 15.15 116.457 15.4223C116.776 15.5871 117.07 15.6516 117.335 15.6157C117.596 15.5799 117.786 15.451 117.901 15.2288C118.076 14.8885 117.808 14.387 117.088 13.7171C116.851 13.5021 116.669 13.3302 116.536 13.2012C116.11 12.7892 115.787 12.4596 115.572 12.2124C115.354 11.9617 115.211 11.7611 115.139 11.607C114.963 11.2452 114.874 10.8977 114.874 10.5681C114.874 10.235 114.956 9.90537 115.128 9.57221C115.497 8.85931 116.063 8.41867 116.819 8.25029C117.575 8.0855 118.388 8.2288 119.259 8.6766C119.703 8.90588 120.093 9.16381 120.434 9.44682C120.77 9.72983 121.071 10.0558 121.34 10.4212L121.72 10.1633L122.741 10.6935L121.462 13.1654L120.262 12.5456C120.405 11.9832 120.38 11.4924 120.179 11.0768C119.982 10.6648 119.613 10.3173 119.072 10.0343C118.754 9.86955 118.456 9.80506 118.173 9.84447C117.894 9.88388 117.7 10.0093 117.589 10.217C117.424 10.5359 117.693 10.9801 118.399 11.5497C118.571 11.693 118.703 11.8005 118.8 11.8829C119.764 12.7032 120.373 13.4126 120.62 14.018C120.867 14.6198 120.828 15.2432 120.491 15.8916C120.118 16.6081 119.552 17.0415 118.789 17.1884C118.023 17.3317 117.181 17.1669 116.26 16.6941C115.837 16.4755 115.458 16.2176 115.117 15.9238C114.777 15.6265 114.465 15.2826 114.179 14.8921L113.71 15.15L112.735 14.6449L114.107 11.9939V11.9903ZM114.856 6.79225L114.444 7.84906L114.079 7.70577C113.813 7.60188 113.627 7.56964 113.523 7.61262C113.423 7.65561 113.315 7.81682 113.204 8.09983L111.617 12.1766C111.506 12.4632 111.474 12.6567 111.524 12.757C111.574 12.8573 111.728 12.9576 111.994 13.0615L112.359 13.2048L111.947 14.2616L107.505 12.5313L107.917 11.4745L108.289 11.6178C108.551 11.7181 108.73 11.7503 108.834 11.7073C108.938 11.6679 109.045 11.5031 109.16 11.2165L110.747 7.13975C110.858 6.85673 110.89 6.66328 110.844 6.56656C110.797 6.46625 110.639 6.36594 110.378 6.26205L110.005 6.11876L110.417 5.06194L114.859 6.79225H114.856ZM103.159 11.1055L103.471 10.0128L103.818 10.1132C104.112 10.1955 104.295 10.235 104.367 10.2206C104.442 10.2063 104.492 10.1561 104.517 10.0666C104.535 10.0057 104.546 9.94836 104.553 9.89104C104.56 9.83014 104.564 9.7764 104.564 9.71909L104.524 8.81273L102.45 8.21805L101.999 8.88438C101.923 8.98469 101.87 9.0635 101.837 9.1244C101.802 9.18531 101.78 9.24262 101.766 9.29278C101.744 9.36084 101.776 9.42533 101.859 9.49339C101.941 9.55788 102.07 9.6152 102.242 9.66177L102.622 9.76924L102.31 10.8619L98.8676 9.87313L99.1793 8.78049L99.4623 8.86289C99.6593 8.92021 99.8384 8.90588 100.007 8.81632C100.175 8.73034 100.347 8.56196 100.526 8.30761L104.223 3.06654L107.01 3.86542L107.15 10.1812C107.164 10.6004 107.211 10.8619 107.29 10.9729C107.369 11.0804 107.519 11.17 107.745 11.2344L108.15 11.3491L107.838 12.4417L103.163 11.1019L103.159 11.1055ZM104.478 7.60546L104.445 5.07269L103.12 7.21856L104.478 7.60904V7.60546ZM94.9842 2.34289C94.5508 2.26766 94.1925 2.35722 93.9131 2.60799C93.6337 2.86234 93.4438 3.26715 93.3435 3.82959L93.3363 3.86183L92.172 3.66122L92.6915 0.673483L100.999 2.1172L100.48 5.10493L99.3261 4.90432L99.3333 4.87208C99.43 4.31322 99.387 3.869 99.2079 3.53583C99.0288 3.19909 98.7171 2.99489 98.2801 2.91608L97.9361 2.85517L97.0907 7.7201C97.037 8.02102 97.0441 8.21805 97.1122 8.30761C97.1803 8.39717 97.3522 8.46524 97.6316 8.51181L98.2908 8.62645L98.0974 9.74416L92.9064 8.84139L93.0999 7.72368L93.7125 7.83115C93.9776 7.87772 94.1531 7.87772 94.2498 7.83115C94.3466 7.781 94.4218 7.59471 94.4791 7.26871L95.3246 2.40379L94.9807 2.34647L94.9842 2.34289ZM81.7329 5.42735C81.7185 6.04711 81.8081 6.48058 81.9944 6.73493C82.1807 6.9857 82.5031 7.11825 82.9652 7.129C83.5098 7.13975 83.9038 7.02511 84.1438 6.78509C84.3874 6.54506 84.5128 6.14383 84.5272 5.58498L84.6024 1.95599C84.6096 1.64074 84.5737 1.44728 84.4985 1.37564C84.4233 1.30399 84.2441 1.26458 83.9611 1.25742L83.5527 1.25025L83.5778 0.114625L87.2928 0.193439L87.2677 1.32906L86.8987 1.3219C86.6193 1.31474 86.4366 1.34698 86.3578 1.41863C86.2754 1.49027 86.2324 1.66939 86.2288 1.95599L86.1464 5.82142C86.1285 6.67403 85.8061 7.31887 85.1756 7.75234C84.5487 8.18223 83.6387 8.38643 82.4422 8.36135C81.3567 8.33986 80.522 8.10342 79.9345 7.65203C79.347 7.20065 79.064 6.57372 79.0819 5.77484L79.1643 1.84493C79.1714 1.54043 79.1356 1.35056 79.0532 1.27175C78.9744 1.19293 78.7917 1.15353 78.5087 1.14636L78.1039 1.1392L78.129 0.00357056L82.9545 0.103878L82.9294 1.23592L82.4852 1.22517C82.1986 1.21801 82.0159 1.25383 81.9335 1.32906C81.8511 1.4043 81.8081 1.59058 81.8009 1.89509L81.7257 5.42735H81.7329ZM76.5455 0.15045L76.9718 3.40687L75.6822 3.57524C75.6069 3.18834 75.5245 2.87667 75.4314 2.63665C75.3383 2.39663 75.2272 2.19601 75.0911 2.04197C74.9334 1.85926 74.7364 1.74104 74.5143 1.68731C74.2886 1.63357 73.8766 1.64432 73.2712 1.72313L72.2502 1.85568L72.5368 4.03379L72.8449 3.99438C73.2031 3.94781 73.4432 3.82601 73.565 3.63614C73.6868 3.44269 73.719 3.12744 73.6617 2.68322L73.6545 2.61515L74.6504 2.4826L75.1269 6.10801L74.131 6.24056C74.0414 5.68887 73.9232 5.33779 73.7727 5.19091C73.6223 5.04045 73.3643 4.99029 72.9989 5.04045L72.6801 5.08344L72.9165 6.87465C72.9595 7.20423 73.0276 7.3941 73.1172 7.44783C73.2103 7.50157 73.3894 7.50873 73.6545 7.47649L74.0952 7.41917L74.242 8.54405L69.5168 9.16381L69.3699 8.03893L69.7676 7.9852C70.0291 7.94937 70.2011 7.89564 70.2763 7.82399C70.3515 7.75234 70.3694 7.56605 70.33 7.27588L70.3229 7.21498L69.7533 2.87667C69.7139 2.56858 69.6494 2.38588 69.5634 2.32498C69.4774 2.26408 69.2911 2.25333 69.0117 2.28915L68.6248 2.33931L68.4779 1.21443L76.5527 0.154032L76.5455 0.15045ZM61.2486 9.24621L60.7256 7.41917L64.0787 6.45909L64.6018 8.28612L61.2486 9.24621ZM51.9236 11.2273L51.4543 10.192L55.4952 8.36493L55.961 9.40025L55.6994 9.51847C55.4487 9.63311 55.2982 9.737 55.2516 9.83014C55.2051 9.92328 55.2516 10.1167 55.3806 10.4105L56.4231 12.7176L55.094 13.3194L54.6534 12.9827C54.3847 13.3517 54.0945 13.6669 53.7757 13.9356C53.4604 14.2007 53.1237 14.4121 52.7654 14.5733C51.637 15.082 50.5909 15.1429 49.6272 14.7452C48.6636 14.3476 47.9077 13.5451 47.3632 12.3378C46.8365 11.1735 46.7613 10.0773 47.1375 9.04559C47.5136 8.01744 48.2767 7.24364 49.423 6.72418C49.8207 6.54506 50.1969 6.42326 50.5587 6.36594C50.9169 6.30504 51.2716 6.30504 51.6227 6.35878L51.6155 5.87515L52.7762 5.34854L54.1339 8.35777L52.8586 8.93454C52.4215 8.28612 52.0024 7.86339 51.6047 7.66278C51.2071 7.45858 50.7879 7.45858 50.3545 7.65561C49.8565 7.88131 49.595 8.25746 49.5663 8.78766C49.5377 9.31785 49.7419 10.0702 50.1789 11.0374C50.6196 12.0154 51.053 12.671 51.4758 13.0077C51.8949 13.3445 52.3499 13.3982 52.8371 13.1797C53.1559 13.0364 53.3494 12.8895 53.421 12.7426C53.4927 12.5922 53.4533 12.3557 53.3064 12.0297L53.052 11.4709C52.9267 11.195 52.812 11.0374 52.7117 11.0052C52.6078 10.9693 52.4251 11.0088 52.1636 11.127L51.9236 11.2344V11.2273ZM39.8795 11.9724L45.1134 15.2038L43.3401 12.0906C43.1789 11.8112 43.0463 11.6608 42.9425 11.6464C42.835 11.6321 42.6666 11.6894 42.4302 11.822L42.0361 12.0477L41.4737 11.0625L44.533 9.31785L45.0955 10.303L44.8483 10.4427C44.6047 10.5824 44.465 10.7007 44.4327 10.8046C44.4005 10.9049 44.4614 11.0947 44.6154 11.3634L47.682 16.7478L45.2925 18.1091L39.7434 14.6592L41.685 18.0661C41.8391 18.3348 41.968 18.4853 42.0755 18.5103C42.183 18.5354 42.3549 18.4781 42.5985 18.3384L42.9066 18.1628L43.4691 19.1516L40.3954 20.8998L39.8329 19.9146L40.1732 19.7212C40.4204 19.5815 40.5601 19.4597 40.5924 19.3522C40.6246 19.2447 40.5673 19.0584 40.4168 18.7933L38.2531 14.9924C38.1026 14.7273 37.9736 14.584 37.8662 14.5553C37.7587 14.5303 37.5796 14.5876 37.3324 14.7309L36.9921 14.9243L36.4296 13.9392L39.8759 11.976L39.8795 11.9724ZM34.2981 22.4761C34.6814 22.9633 35.0217 23.2463 35.3298 23.3215C35.6343 23.3968 35.9675 23.2964 36.3293 23.0134C36.7592 22.6767 36.9885 22.3399 37.0243 21.9996C37.0601 21.6593 36.9061 21.2688 36.5622 20.8282L34.3232 17.973C34.1297 17.7258 33.9792 17.5968 33.8754 17.5897C33.7715 17.5825 33.6103 17.6649 33.3881 17.8368L33.0657 18.0876L32.3672 17.1956L35.2904 14.9028L35.989 15.7949L35.6988 16.0206C35.4803 16.1925 35.3585 16.3322 35.3406 16.4397C35.3227 16.5472 35.4015 16.712 35.5806 16.9377L37.9665 19.9791C38.4931 20.6526 38.6543 21.3548 38.4394 22.0856C38.2244 22.8164 37.6512 23.5508 36.7126 24.2888C35.86 24.9587 35.0611 25.3062 34.3232 25.3277C33.5816 25.3492 32.969 25.0447 32.4746 24.4142L30.0493 21.3225C29.863 21.0825 29.7126 20.9571 29.6015 20.95C29.4905 20.9392 29.3221 21.0252 29.1 21.1971L28.7812 21.4479L28.0826 20.5559L31.8799 17.5789L32.5785 18.4709L32.231 18.7432C32.0053 18.9187 31.8835 19.062 31.8692 19.1731C31.8513 19.2806 31.9373 19.4561 32.1271 19.6961L34.3052 22.4761H34.2981ZM23.558 25.1342L24.3819 25.9152L24.3354 25.9653C24.1563 26.1516 24.0631 26.3021 24.0559 26.406C24.0452 26.5099 24.1598 26.6747 24.3927 26.8968L25.8292 28.2617L26.0621 24.9193C26.0693 24.8333 26.0621 24.7581 26.0478 24.7008C26.0299 24.6363 26.0048 24.5897 25.9654 24.5503C25.9152 24.5001 25.8507 24.493 25.7755 24.5252C25.6967 24.5575 25.6071 24.6327 25.4961 24.7473L25.0339 25.2345L24.21 24.4536L27.2873 21.2151L28.1077 21.996L27.8282 22.2898C27.7315 22.3937 27.6527 22.5477 27.5918 22.7591C27.5309 22.9704 27.4915 23.2212 27.4736 23.5186L27.3625 25.6429L31.2029 26.3021C31.4321 26.3451 31.622 26.3451 31.7725 26.3021C31.9229 26.2627 32.0626 26.1767 32.188 26.0442L32.5212 25.6931L33.3452 26.4741L29.9311 30.0672L29.1072 29.2862L29.3687 29.0104C29.5084 28.8635 29.5944 28.7489 29.6266 28.6629C29.6588 28.5769 29.6481 28.5053 29.5944 28.4515C29.555 28.4121 29.512 28.3835 29.4654 28.362C29.4188 28.3405 29.3723 28.3262 29.3185 28.319L27.2228 27.9428L27.0688 29.4582L27.556 29.9203C27.7781 30.1317 27.9465 30.2356 28.0539 30.2284C28.165 30.2248 28.3119 30.1209 28.4981 29.9239L28.6773 29.734L29.5012 30.515L26.3523 33.8323L25.5283 33.0514L25.8042 32.7576C25.9976 32.5534 26.0943 32.3994 26.0979 32.2883C26.0979 32.1808 25.9869 32.0196 25.7612 31.8047L22.5907 28.7919C22.365 28.5769 22.1967 28.473 22.0928 28.4802C21.9853 28.4874 21.8348 28.5948 21.6414 28.799L21.3656 29.0892L20.5416 28.3082L23.5616 25.1306L23.558 25.1342Z" fill="#ED1C24"/>
</g>
<defs>
<clipPath id="clip0_504_8333">
<rect width="164.755" height="163" fill="white"/>
</clipPath>
</defs>
</svg>
